PathFileType	4	(X/Y/Z)	C:/Users/beibeiliu/ov580/test_trc/capture2\sequence.20_training_dense_left.trc
DataRate	CameraRate	NumFrames	NumMarkers	Units	OrigDataRate	OrigDataStartFrame	OrigNumFrames
120	120	18	19	mm	120	295	337
Frame#	Time	ThumbCMC			ThumbMCP			ThumbIP			ThumbTip			IndexMCP			IndexPIP			IndexTip			MiddleMCP			MiddlePIP			MiddleTip			RingMCP			RingPIP			RingTip			PinkyMCP			PinkyPIP			PinkyTip			BackHand1			BackHand2			BackHand3	
		X0	Y0	Z0	X1	Y1	Z1	X2	Y2	Z2	X3	Y3	Z3	X4	Y4	Z4	X5	Y5	Z5	X6	Y6	Z6	X7	Y7	Z7	X8	Y8	Z8	X9	Y9	Z9	X10	Y10	Z10	X11	Y11	Z11	X12	Y12	Z12	X13	Y13	Z13	X14	Y14	Z14	X15	Y15	Z15	X16	Y16	Z16	X17	Y17	Z17	X18	Y18	Z18	
294	2.45	-179.949	41.3782	18.7121	-170.126	57.635	-4.45634	-150.631	62.0208	-22.7381	-125.434	57.0115	-25.2599	-145.156	35.1467	-44.5145	-127.213	41.1535	-65.2738	-109.885	48.6264	-85.9789	-119.775	27.4944	-46.3615	-107.969	34.3699	-64.0202	-90.3484	43.3055	-90.7795	-106.922	22.9215	-33.7511	-92.1522	30.2031	-54.6021	-79.4049	35.9629	-73.5507	-95.6581	19.6211	-20.8611	-85.7908	27.8313	-37.3586	-75.6879	31.0811	-59.8454	-129.046	2.14578	5.69883	-141.953	-8.52792	34.8364	-164.169	8.41002	11.44	
295	2.45833	-177.312	39.7466	23.5925	-173.239	60.1534	-5.09997	-152.917	62.1949	-22.5563	-124.417	57.3156	-29.4858	-145.601	35.991	-49.2556	-129.513	42.1449	-67.2058	-115.833	47.9575	-85.6056	-126.611	29.4909	-46.0793	-110.808	35.9251	-65.1829	-94.1166	44.4479	-91.0771	-110.818	26.9339	-35.7709	-93.526	33.6046	-58.9049	-87.3351	41.4893	-79.1105	-96.5109	23.3718	-19.1753	-89.2488	30.5764	-39.7638	-79.8737	32.5576	-62.0713	-131.676	4.54352	6.53759	-139.022	-3.33441	31.1364	-162.745	10.5722	11.7183	
296	2.46667	-178.753	40.8997	25.0308	-173.99	59.0641	-1.3204	-153.799	62.55	-27.7137	-127.502	58.1827	-29.3103	-147.893	36.4652	-47.8654	-138.133	42.2446	-66.5017	-118.768	48.8363	-87.0863	-128.599	31.9328	-49.6096	-116.056	39.2537	-69.8519	-99.0278	45.1055	-89.9192	-112.732	28.7175	-36.7417	-97.8836	35.2667	-58.2091	-88.4063	42.1278	-79.26	-99.0309	27.3106	-23.3419	-94.0575	34.5467	-41.696	-85.9704	34.5791	-59.746	-127.458	6.29418	4.06204	-139.986	1.12158	33.1792	-163.381	10.6302	13.4028	
297	2.475	-180.026	42.3301	20.4499	-174.55	58.5866	-0.928222	-158.336	64.2523	-25.5156	-130.049	60.2109	-27.9116	-151.543	36.9098	-48.4167	-140.573	44.2383	-69.4639	-121.998	49.1277	-88.8678	-127.044	30.7115	-46.6772	-118.793	40.0045	-70.5277	-103.713	46.6033	-95.671	-113.104	30.845	-39.7111	-99.9511	37.0741	-57.2031	-94.7787	44.7351	-83.7197	-99.2778	29.4748	-21.0853	-95.8982	36.5654	-39.3938	-84.3486	39.1984	-66.3111	-127.223	10.9419	8.63958	-133.93	0.848736	32.504	-159.826	14.1431	10.5216	
298	2.48333	-179.35	43.2142	22.3533	-179.225	61.4014	-2.23247	-158.837	64.5229	-25.6725	-134.647	62.6975	-29.3281	-150.598	37.0934	-47.8428	-139.745	44.5912	-68.6614	-126.579	49.1833	-91.4517	-132.343	33.9233	-51.4206	-122.118	40.0824	-70.702	-104.148	45.9429	-97.1009	-116.675	33.3051	-42.1753	-106.236	40.0775	-63.7903	-95.9545	45.3965	-82.2629	-104.042	33.4868	-25.3191	-93.8773	40.2657	-45.0172	-84.797	40.456	-63.2298	-130.322	13.2552	6.49493	-136.282	4.28755	33.0617	-161.064	14.2327	12.4129	
299	2.49167	-180.49	44.649	22.5715	-178.967	60.6709	1.05838	-161.486	65.2823	-27.0059	-132.816	62.2096	-32.0599	-152.393	37.6629	-47.4897	-143.15	42.5872	-67.754	-132.153	47.0846	-87.2361	-130.576	33.6105	-51.1462	-124.357	39.7694	-70.2736	-114.781	45.3367	-95.2727	-115.505	32.9168	-38.1095	-105.483	39.9863	-62.4002	-102.175	45.5278	-84.1026	-101.595	34.3891	-23.0462	-99.8482	41.5714	-41.9302	-91.2074	41.968	-70.6916	-128.778	13.4565	7.51013	-133.47	6.01807	33.3356	-160.473	16.0074	13.474	
300	2.5	-180.507	45.4671	29.1836	-179.809	59.581	-2.59364	-164.271	62.8837	-24.4652	-136.916	62.26	-32.3159	-154.668	33.9153	-45.7571	-151.851	40.2003	-68.6261	-135.381	43.8121	-89.1193	-134.064	31.2564	-49.1173	-128.409	37.589	-71.8177	-121.008	43.028	-96.9337	-118.303	31.5746	-42.3957	-113.135	38.1793	-61.1562	-104.147	42.5269	-90.2944	-104.274	34.2916	-28.6709	-99.7087	39.6635	-45.582	-95.359	40.0561	-67.7878	-130.122	15.862	8.83823	-136.216	7.70022	32.2939	-159.007	14.7955	15.4914	
301	2.50833	-179.194	44.2146	27.1546	-182.068	57.9158	-2.87616	-169.552	62.9996	-26.4522	-143.713	59.6936	-33.2108	-159.643	30.8192	-41.6084	-155.409	35.298	-66.6241	-145.948	39.4023	-91.1721	-139.328	27.465	-45.4542	-131.141	33.3646	-75.0187	-122.465	35.8881	-97.6603	-124.855	29.783	-40.0196	-114.084	33.121	-63.4894	-113.216	37.2437	-92.3157	-106.6	31.6091	-28.1661	-103.312	36.9126	-48.151	-100.481	34.7905	-70.0807	-127.293	14.9864	10.2983	-133.11	8.05957	35.5602	-163.121	12.9749	17.1868	
302	2.51667	-183.088	44.6499	28.9203	-184.925	57.4732	-2.99162	-172.808	59.1328	-24.6263	-141.935	54.8441	-36.0842	-168.322	25.4734	-41.2957	-161.58	28.045	-65.2997	-150.919	31.6777	-93.1175	-142.81	22.7007	-47.956	-138.523	26.2976	-74.3597	-133.962	27.3806	-97.8722	-127.69	24.5424	-43.6992	-118.643	27.5225	-63.2656	-117.574	29.3148	-93.0267	-112.409	29.0498	-28.6552	-110.725	31.5633	-49.8712	-105.127	27.9981	-72.3023	-130.477	13.0824	11.3118	-131.172	9.90182	37.9915	-164.947	13.607	22.7488	
303	2.525	-182.262	44.9695	31.7305	-188.263	55.7326	-0.983899	-175.172	55.3876	-23.9458	-149.598	51.7322	-37.8518	-168.617	20.5072	-37.8936	-163.381	21.9685	-65.6909	-157.261	22.5954	-88.3733	-149.054	16.6376	-48.7752	-143.012	19.7096	-72.9189	-141.863	19.8175	-100.262	-129.83	20.7639	-38.9024	-129.778	22.0733	-62.9142	-125.344	21.8999	-90.2833	-118.459	25.6173	-27.0425	-112.967	25.747	-52.5041	-111.164	21.5639	-70.6431	-133.047	11.8627	9.16428	-132.227	8.38584	37.2851	-165.003	12.4012	25.0985	
304	2.53333	-183.638	44.2398	32.0576	-192.108	55.6104	0.910905	-178.483	50.593	-23.9464	-152.819	45.5496	-33.9413	-175.35	16.9947	-36.0817	-171.265	15.5213	-63.2194	-163.405	13.0958	-86.1332	-152.897	12.9233	-43.3557	-150.091	13.0654	-66.2671	-146.338	10.544	-97.1159	-138.145	14.9627	-41.4771	-137.629	14.2952	-65.4132	-133.476	13.3277	-86.454	-121.91	20.6272	-29.1499	-122.107	20.3648	-50.9312	-119.474	12.4919	-72.2958	-138.696	9.39821	15.1605	-139.412	11.4482	39.8703	-171.332	11.8758	26.6697	
305	2.54167	-187.252	44.4153	32.3939	-192.264	54.1212	4.91097	-185.305	49.2075	-25.3972	-159.052	42.7638	-36.8595	-185.426	13.4564	-36.6061	-180.097	9.8792	-58.2123	-174.038	5.0531	-85.9664	-160.632	8.89765	-39.0001	-160.884	7.62771	-65.0212	-159.87	4.00729	-95.8296	-143.333	10.3383	-38.028	-140.028	7.74571	-60.368	-144.436	5.77518	-86.8802	-125.151	16.5034	-25.7059	-127.732	13.5655	-49.7813	-129.26	5.98569	-73.8781	-141.47	9.65304	14.9946	-139.021	8.3282	39.4779	-172.398	12.2267	30.8214	
306	2.55	-188.453	49.286	36.747	-194.506	55.1857	5.071	-189.011	47.2783	-24.8783	-168.172	40.203	-37.0634	-189.519	12.9403	-31.5584	-187.917	7.80909	-57.811	-184.188	1.94902	-80.3601	-170.317	6.08713	-38.0655	-169.891	3.62277	-63.5178	-170.947	-1.8661	-94.1686	-151.276	6.29719	-38.3505	-153.595	3.16134	-63.6926	-152.541	-0.775365	-84.9736	-136.919	13.3559	-25.5946	-138.277	10.3874	-50.6518	-137.674	1.84128	-71.6966	-148.998	7.76962	14.7144	-144.892	9.57998	41.8681	-175.042	12.8861	31.7545	
307	2.55833	-195.59	53.6247	39.1734	-204.004	61.1904	6.93768	-196.232	50.3835	-20.0698	-174.064	38.5805	-34.2656	-200.835	14.0152	-26.7349	-198.629	8.54908	-51.6778	-195.023	1.3384	-73.8096	-179.114	6.43927	-36.0371	-180.627	0.732572	-63.7574	-182.692	-4.71691	-88.2997	-165.075	5.78231	-35.9958	-166.122	2.18707	-59.6201	-164.275	-3.81248	-82.3787	-144.128	10.4241	-27.7272	-147.668	7.71679	-47.5657	-150.719	-2.4055	-72.0521	-153.805	9.20115	17.2748	-152.243	11.6042	42.3236	-184.819	16.8567	35.7112	
308	2.56667	-196.582	56.3584	38.0045	-207.774	64.6232	10.433	-206.146	54.8886	-19.3617	-185.553	42.1056	-33.4257	-211.735	18.1	-22.6598	-215.458	10.7296	-48.0345	-210.882	3.04455	-70.0661	-191.74	7.31807	-31.1306	-195.493	3.53882	-56.8148	-196.275	-5.84569	-81.1181	-173.799	5.75259	-34.7173	-176.134	0.912133	-56.023	-183.051	-2.9801	-78.4792	-152.026	10.3994	-24.831	-158.359	5.98841	-49.3418	-163.319	-5.06512	-64.8228	-164.455	10.8936	19.3154	-154.499	14.3948	43.8435	-186.88	20.7574	36.0521	
309	2.575	-200.955	60.7165	40.1321	-209.577	65.8446	13.0938	-211.375	55.8599	-16.3303	-191.596	40.1892	-32.0777	-220.777	22.5881	-16.9376	-222.587	15.4945	-43.4423	-225.263	8.19055	-66.7974	-206.118	11.1856	-27.7894	-210.93	7.38311	-51.0662	-211.8	-2.12084	-78.8725	-183.873	7.92325	-29.2161	-193.088	4.43442	-53.5418	-198.602	-3.23375	-80.6107	-168.676	12.7452	-25.6608	-173.24	9.07894	-44.4076	-182.297	-5.2464	-59.5154	-168.707	9.95971	19.3326	-159.677	17.8851	47.2303	-193.89	23.1154	37.5189	
310	2.58333	-199.715	68.1288	45.5692	-211.687	77.4675	17.2816	-212.572	68.4666	-7.32186	-201.371	53.2643	-27.9251	-229.673	35.3223	-11.9931	-231.722	30.2255	-38.5619	-232.112	27.0801	-64.4199	-216.112	20.9827	-22.9454	-221.521	16.3668	-48.4822	-229.741	12.7896	-77.2477	-196.025	14.6766	-25.0971	-205.636	12.2656	-49.2345	-211.128	9.00669	-77.9398	-177.907	19.1821	-25.5246	-183.602	18.1579	-41.622	-193.337	5.73349	-45.0114	-176.049	13.8097	21.4583	-169.535	20.0145	48.1172	-197.568	33.7987	45.8541	
311	2.59167	-179.826	85.878	54.5535	-187.545	99.8831	24.8457	-197.54	102.745	-1.66438	-193.754	80.1592	-20.2424	-223.229	72.2112	-7.0594	-229.7	76.2026	-31.1398	-234.69	79.2368	-55.3238	-221.866	57.9862	-14.3638	-228.499	57.6406	-43.0534	-236.854	65.3032	-72.1213	-206.943	43.8033	-19.1223	-215.843	45.2105	-45.7871	-221.596	52.8537	-70.93	-184.672	44.4433	-24.1823	-186.509	48.0128	-32.4254	-190.685	38.5256	-26.3066	-185.654	31.2257	23.2749	-174.153	30.1999	52.8363	-201.081	55.4002	48.1795	
